<svg width="24" height="24" viewBox="0 0 24 24" fill="none" xmlns="http://www.w3.org/2000/svg">
<path d="M14.0003 18.0001C14.2655 18.0001 14.5199 17.8948 14.7074 17.7073C14.8949 17.5197 15.0003 17.2654 15.0003 17.0001V15.0001C15.0003 14.7349 14.8949 14.4806 14.7074 14.293C14.5199 14.1055 14.2655 14.0001 14.0003 14.0001C13.7351 14.0001 13.4807 14.1055 13.2932 14.293C13.1056 14.4806 13.0003 14.7349 13.0003 15.0001V17.0001C13.0003 17.2654 13.1056 17.5197 13.2932 17.7073C13.4807 17.8948 13.7351 18.0001 14.0003 18.0001ZM10.0003 18.0001C10.2655 18.0001 10.5199 17.8948 10.7074 17.7073C10.8949 17.5197 11.0003 17.2654 11.0003 17.0001V15.0001C11.0003 14.7349 10.8949 14.4806 10.7074 14.293C10.5199 14.1055 10.2655 14.0001 10.0003 14.0001C9.73506 14.0001 9.48071 14.1055 9.29317 14.293C9.10564 14.4806 9.00028 14.7349 9.00028 15.0001V17.0001C9.00028 17.2654 9.10564 17.5197 9.29317 17.7073C9.48071 17.8948 9.73506 18.0001 10.0003 18.0001ZM19.0003 6.00015H17.6203L15.8903 2.55015C15.8374 2.4232 15.7589 2.30852 15.6598 2.21328C15.5606 2.11803 15.4428 2.04427 15.3138 1.99659C15.1848 1.94892 15.0474 1.92836 14.9101 1.9362C14.7728 1.94404 14.6386 1.98011 14.5159 2.04216C14.3932 2.10421 14.2846 2.1909 14.1969 2.29682C14.1092 2.40274 14.0443 2.5256 14.0062 2.65774C13.9681 2.78988 13.9577 2.92845 13.9756 3.0648C13.9935 3.20114 14.0394 3.33232 14.1103 3.45015L15.3803 6.00015H8.62028L9.89028 3.45015C9.98735 3.21706 9.99264 2.95587 9.9051 2.71904C9.81756 2.4822 9.64367 2.28725 9.41834 2.17331C9.19301 2.05938 8.93292 2.03491 8.6903 2.10481C8.44767 2.17471 8.24046 2.3338 8.11028 2.55015L6.38028 6.00015H5.00028C4.29347 6.0109 3.61316 6.2709 3.07933 6.73428C2.5455 7.19767 2.19245 7.83468 2.08245 8.53296C1.97245 9.23124 2.11256 9.94594 2.47807 10.551C2.84358 11.1561 3.41101 11.6126 4.08028 11.8401L4.82028 19.3001C4.8949 20.0427 5.24363 20.7308 5.79835 21.2301C6.35308 21.7293 7.07398 22.0039 7.82028 22.0001H16.2003C16.9466 22.0039 17.6675 21.7293 18.2222 21.2301C18.7769 20.7308 19.1257 20.0427 19.2003 19.3001L19.9403 11.8401C20.611 11.6119 21.1793 11.1537 21.5446 10.5466C21.9098 9.93955 22.0484 9.22278 21.9359 8.52329C21.8233 7.8238 21.4667 7.18674 20.9294 6.72492C20.3921 6.26311 19.7087 6.00636 19.0003 6.00015ZM17.1903 19.1001C17.1654 19.3477 17.0492 19.577 16.8643 19.7435C16.6793 19.9099 16.439 20.0014 16.1903 20.0001H7.81028C7.56151 20.0014 7.32121 19.9099 7.1363 19.7435C6.9514 19.577 6.83515 19.3477 6.81028 19.1001L6.10028 12.0001H17.9003L17.1903 19.1001ZM19.0003 10.0001H5.00028C4.73506 10.0001 4.48071 9.89479 4.29317 9.70726C4.10564 9.51972 4.00028 9.26537 4.00028 9.00015C4.00028 8.73493 4.10564 8.48058 4.29317 8.29304C4.48071 8.10551 4.73506 8.00015 5.00028 8.00015H19.0003C19.2655 8.00015 19.5199 8.10551 19.7074 8.29304C19.8949 8.48058 20.0003 8.73493 20.0003 9.00015C20.0003 9.26537 19.8949 9.51972 19.7074 9.70726C19.5199 9.89479 19.2655 10.0001 19.0003 10.0001Z" fill="#3F3D52"/>
</svg>
