<svg width="168" height="26" viewBox="0 0 168 26" fill="none" xmlns="http://www.w3.org/2000/svg">
<g clip-path="url(#clip0_108_1642)">
<path d="M62.0686 14.2746H51.7321V22.059H56.6168V17.1937H62.0686V25.9512H53.4631C52.3565 25.9692 51.2514 25.8614 50.1702 25.6301C49.3449 25.4576 48.578 25.0826 47.9417 24.5403C47.3431 23.99 46.9096 23.2901 46.6882 22.5164C46.4074 21.5216 46.2734 20.4928 46.2903 19.461V16.7364C46.2626 15.6855 46.3933 14.6363 46.6783 13.6226C46.9006 12.8715 47.335 12.1969 47.9318 11.6765C48.576 11.1559 49.3414 10.7984 50.1603 10.6354C51.2427 10.4125 52.3471 10.3081 53.4532 10.324H62.0686V14.2746ZM19.4891 25.9999V14.3232H15.2013V25.9999H9.75946V14.3232H5.44182V25.9999H0V10.3045H19.4194C20.1757 10.2392 20.9377 10.3208 21.6616 10.5446C22.3855 10.7684 23.057 11.1299 23.6376 11.6084C24.1268 12.1763 24.4964 12.8331 24.7252 13.5411C24.954 14.2492 25.0374 14.9945 24.9707 15.7342V25.9999H19.4891ZM38.043 19.8307H32.5315V22.4385H38.0828L38.043 19.8307ZM32.1236 25.9999C30.83 26.0771 29.5553 25.6661 28.5621 24.8517C28.107 24.3898 27.7573 23.8387 27.5361 23.2349C27.3149 22.631 27.2272 21.9881 27.2787 21.3487V20.94C27.2246 20.3014 27.3063 19.6587 27.5186 19.0525C27.7309 18.4463 28.0693 17.8896 28.5124 17.4175C29.5198 16.5946 30.8145 16.1864 32.1236 16.2791H38.043V14.2746H28.7014V10.3045H37.9634C38.7197 10.2392 39.4817 10.3208 40.2056 10.5446C40.9295 10.7684 41.601 11.1299 42.1816 11.6084C42.6708 12.1763 43.0404 12.8331 43.2692 13.5411C43.498 14.2492 43.5814 14.9945 43.5147 15.7342V25.9999H32.1236ZM75.897 25.9999V14.3232H70.286V25.9999H64.8442V10.3045H75.7875C76.5438 10.2392 77.3058 10.3208 78.0297 10.5446C78.7536 10.7684 79.4251 11.1299 80.0057 11.6084C80.4949 12.1763 80.8645 12.8331 81.0933 13.5411C81.3221 14.2492 81.4055 14.9945 81.3388 15.7342V25.9999H75.897ZM84.1144 25.9999V10.3045H89.5562V25.9999H84.1144Z" fill="white"/>
<path d="M107.205 14.2746H98.9276V22.059H107.195V25.9999H100.649C99.542 26.0178 98.437 25.9101 97.3557 25.6788C96.5304 25.5063 95.7635 25.1313 95.1273 24.589C94.5286 24.0387 94.0952 23.3388 93.8737 22.565C93.6015 21.5527 93.4809 20.5072 93.5156 19.461V16.7364C93.4879 15.6855 93.6186 14.6363 93.9036 13.6227C94.1259 12.8715 94.5604 12.197 95.1571 11.6766C95.8014 11.156 96.5667 10.7984 97.3856 10.6354C98.468 10.4125 99.5724 10.3081 100.679 10.324H107.225L107.205 14.2746ZM109.851 25.9513V10.3045H115.293V22.059H123.918V25.9999L109.851 25.9513ZM126.316 25.9513V10.3045H131.758V25.9999L126.316 25.9513ZM147.964 14.2746H139.677V22.059H147.944V25.9999H141.398C140.291 26.0178 139.186 25.9101 138.105 25.6788C137.279 25.5063 136.513 25.1313 135.876 24.589C135.278 24.0387 134.844 23.3388 134.623 22.565C134.339 21.5479 134.208 20.4956 134.235 19.4415V16.7364C134.207 15.6855 134.338 14.6363 134.623 13.6227C134.845 12.8715 135.279 12.197 135.876 11.6766C136.52 11.156 137.286 10.7984 138.105 10.6354C139.187 10.4125 140.292 10.3081 141.398 10.324H147.944L147.964 14.2746ZM161.702 25.9513L156.052 19.4999V25.9513H150.61V10.3045H156.052V16.5418L161.285 10.2656H167.562L161.076 17.7387L168.04 25.9513H161.702Z" fill="white"/>
<path d="M129.062 -0.00737083L124.434 4.52002L129.062 9.04741L133.691 4.52002L129.062 -0.00737083Z" fill="white"/>
<path d="M88.328 -0.00151055L83.6992 4.52588L88.328 9.05327L92.9568 4.52588L88.328 -0.00151055Z" fill="white"/>
</g>
<defs>
<clipPath id="clip0_108_1642">
<rect width="168" height="26" fill="white"/>
</clipPath>
</defs>
</svg>
